<?xml version="1.0" encoding="UTF-8"?>
<!DOCTYPE svg PUBLIC "-//W3C//DTD SVG 1.1//EN" "http://www.w3.org/Graphics/SVG/1.1/DTD/svg11.dtd">
<svg xmlns="http://www.w3.org/2000/svg" version="1.1" width="2048px" height="1335px" style="shape-rendering:geometricPrecision; text-rendering:geometricPrecision; image-rendering:optimizeQuality; fill-rule:evenodd; clip-rule:evenodd" xmlns:xlink="http://www.w3.org/1999/xlink">
<g><path style="opacity:0.979" fill="#000000" d="M 978.5,507.5 C 1005.17,507.333 1031.84,507.5 1058.5,508C 1061.41,509.909 1063.08,512.575 1063.5,516C 1060.11,535.837 1056.78,555.67 1053.5,575.5C 1026.5,575.667 999.498,575.5 972.5,575C 969.613,573.291 968.279,570.791 968.5,567.5C 971.625,547.419 974.958,527.419 978.5,507.5 Z"/></g>
<g><path style="opacity:0.988" fill="#000000" d="M 858.5,508.5 C 885.502,508.333 912.502,508.5 939.5,509C 941.557,510.719 943.224,512.719 944.5,515C 934.346,574.093 924.679,633.26 915.5,692.5C 921.167,692.5 926.833,692.5 932.5,692.5C 926.824,729.553 920.824,766.553 914.5,803.5C 887.831,803.667 861.165,803.5 834.5,803C 829.933,800.367 828.433,796.533 830,791.5C 835.395,758.798 840.895,726.132 846.5,693.5C 840.537,692.504 834.537,692.171 828.5,692.5C 838.716,631.201 848.716,569.868 858.5,508.5 Z"/></g>
<g><path style="opacity:0.986" fill="#000000" d="M 338.5,692.5 C 332.392,729.483 326.392,766.483 320.5,803.5C 293.492,803.833 266.492,803.5 239.5,802.5C 235.76,799.324 234.594,795.324 236,790.5C 241.287,758.114 246.787,725.781 252.5,693.5C 246.537,692.504 240.537,692.171 234.5,692.5C 236.285,683.014 235.785,673.681 233,664.5C 229.497,660.377 224.997,658.377 219.5,658.5C 207.629,658.877 199.462,664.544 195,675.5C 192.775,681.002 191.275,686.669 190.5,692.5C 196.167,692.5 201.833,692.5 207.5,692.5C 201.824,729.554 195.824,766.554 189.5,803.5C 162.831,803.667 136.165,803.5 109.5,803C 104.933,800.367 103.433,796.533 105,791.5C 110.178,758.763 115.678,726.097 121.5,693.5C 115.537,692.504 109.537,692.171 103.5,692.5C 108.685,658.554 114.352,624.72 120.5,591C 145.167,590.333 169.833,590.333 194.5,591C 195.928,593.185 197.595,595.185 199.5,597C 198.076,601.045 197.576,605.212 198,609.5C 226.035,584.494 257.868,578.327 293.5,591C 313.114,601.021 323.614,617.187 325,639.5C 326.177,657.074 324.677,674.407 320.5,691.5C 326.463,692.496 332.463,692.829 338.5,692.5 Z"/></g>
<g><path style="opacity:0.988" fill="#000000" d="M 583.5,692.5 C 570.953,767.051 526.953,805.717 451.5,808.5C 419.636,810.054 392.803,799.387 371,776.5C 359.08,760.005 353.246,741.505 353.5,721C 354.033,711.438 355.033,701.938 356.5,692.5C 350.5,692.5 344.5,692.5 338.5,692.5C 354.398,623.542 397.732,587.542 468.5,584.5C 538.603,586.759 570.937,622.759 565.5,692.5C 571.5,692.5 577.5,692.5 583.5,692.5 Z M 456.5,649.5 C 467.962,648.472 475.129,653.472 478,664.5C 480.979,673.676 481.146,682.842 478.5,692C 484.491,692.499 490.491,692.666 496.5,692.5C 495.101,706.104 490.934,718.77 484,730.5C 476.024,742.271 465.19,746.104 451.5,742C 448.422,739.677 445.922,736.843 444,733.5C 439.665,720.035 439.498,706.535 443.5,693C 437.509,692.501 431.509,692.334 425.5,692.5C 427.437,681.29 431.603,670.956 438,661.5C 443.066,655.564 449.232,651.564 456.5,649.5 Z"/></g>
<g><path style="opacity:0.986" fill="#000000" d="M 583.5,692.5 C 588.685,658.554 594.352,624.72 600.5,591C 625.167,590.333 649.833,590.333 674.5,591C 675.928,593.185 677.595,595.185 679.5,597C 678.076,601.045 677.576,605.212 678,609.5C 706.035,584.494 737.868,578.327 773.5,591C 793.114,601.021 803.614,617.187 805,639.5C 806.137,657.068 804.637,674.402 800.5,691.5C 806.463,692.496 812.463,692.829 818.5,692.5C 812.392,729.483 806.392,766.483 800.5,803.5C 773.492,803.833 746.492,803.5 719.5,802.5C 718.018,800.517 716.351,798.684 714.5,797C 720.608,762.351 726.608,727.684 732.5,693C 726.509,692.501 720.509,692.334 714.5,692.5C 715.927,684.112 715.76,675.779 714,667.5C 711.368,661.095 706.535,658.095 699.5,658.5C 687.629,658.877 679.462,664.544 675,675.5C 672.775,681.002 671.275,686.669 670.5,692.5C 676.167,692.5 681.833,692.5 687.5,692.5C 681.824,729.554 675.824,766.554 669.5,803.5C 642.831,803.667 616.165,803.5 589.5,803C 588,801.5 586.5,800 585,798.5C 589.411,763.364 594.911,728.364 601.5,693.5C 595.537,692.504 589.537,692.171 583.5,692.5 Z"/></g>
<g><path style="opacity:0.986" fill="#000000" d="M 1210.5,584.5 C 1258.1,581.771 1282.76,604.105 1284.5,651.5C 1283.49,665.256 1281.82,678.922 1279.5,692.5C 1285.09,692.807 1290.59,692.473 1296,691.5C 1308.19,638.98 1340.02,604.814 1391.5,589C 1418.6,582.124 1445.27,583.457 1471.5,593C 1502.69,608.503 1520.19,633.67 1524,668.5C 1524.5,676.493 1524.67,684.493 1524.5,692.5C 1530.5,692.5 1536.5,692.5 1542.5,692.5C 1541.99,701.889 1540.99,711.223 1539.5,720.5C 1491.5,720.5 1443.5,720.5 1395.5,720.5C 1396.61,741.442 1407.61,750.609 1428.5,748C 1437.36,745.633 1444.03,740.466 1448.5,732.5C 1474.16,731.334 1499.83,731.167 1525.5,732C 1528.25,734.646 1529.41,737.812 1529,741.5C 1511.77,775.731 1484.27,796.897 1446.5,805C 1428.31,808.282 1409.97,809.282 1391.5,808C 1340.01,801.35 1313.01,772.183 1310.5,720.5C 1311.09,711.11 1312.09,701.777 1313.5,692.5C 1307.91,692.193 1302.41,692.527 1297,693.5C 1291.09,729.848 1285.09,766.182 1279,802.5C 1252.24,803.661 1225.41,803.828 1198.5,803C 1196.64,801.442 1195.14,799.609 1194,797.5C 1199.28,762.512 1204.78,727.512 1210.5,692.5C 1204.49,692.666 1198.49,692.499 1192.5,692C 1195.84,681.776 1195.01,671.943 1190,662.5C 1180.29,657.499 1170.79,657.999 1161.5,664C 1154.78,671.963 1150.45,681.129 1148.5,691.5C 1154.5,692.167 1160.5,692.833 1166.5,693.5C 1160.07,730.092 1154.07,766.758 1148.5,803.5C 1121.5,803.667 1094.5,803.5 1067.5,803C 1066.12,801.075 1064.62,799.241 1063,797.5C 1068.27,762.521 1073.77,727.521 1079.5,692.5C 1073.49,692.666 1067.49,692.499 1061.5,692C 1067.43,658.245 1073.1,624.411 1078.5,590.5C 1103.17,590.333 1127.84,590.5 1152.5,591C 1155,592.818 1156.67,595.152 1157.5,598C 1156.5,602.155 1156,606.321 1156,610.5C 1171.22,595.474 1189.38,586.807 1210.5,584.5 Z M 1415.5,644.5 C 1432.08,644.088 1441.08,652.088 1442.5,668.5C 1424.17,668.5 1405.83,668.5 1387.5,668.5C 1391.65,654.428 1400.99,646.428 1415.5,644.5 Z"/></g>
<g><path style="opacity:0.986" fill="#000000" d="M 1659.5,584.5 C 1680.06,583.968 1700.39,585.802 1720.5,590C 1748.09,596.835 1761.76,614.502 1761.5,643C 1760.11,659.582 1758.11,676.082 1755.5,692.5C 1761.17,692.5 1766.83,692.5 1772.5,692.5C 1767.15,729.273 1761.15,765.94 1754.5,802.5C 1730.21,803.657 1705.88,803.823 1681.5,803C 1677.21,799.242 1675.21,794.408 1675.5,788.5C 1648.4,806.355 1618.73,812.522 1586.5,807C 1553.1,798.913 1538.6,777.747 1543,743.5C 1545.65,722.682 1555.15,705.849 1571.5,693C 1566.17,692.667 1560.83,692.333 1555.5,692C 1564.46,686.006 1574.12,681.339 1584.5,678C 1605.97,673.218 1627.64,669.551 1649.5,667C 1656.74,665.774 1663.74,663.774 1670.5,661C 1674.86,656.796 1675.52,652.13 1672.5,647C 1662.86,642.488 1653.19,642.488 1643.5,647C 1637.49,650.847 1634.16,656.347 1633.5,663.5C 1607.5,663.667 1581.5,663.5 1555.5,663C 1551.14,658.506 1550.31,653.339 1553,647.5C 1560.39,621.885 1576.56,604.385 1601.5,595C 1620.48,588.782 1639.82,585.282 1659.5,584.5 Z M 1679.5,717.5 C 1680.68,717.281 1681.68,717.614 1682.5,718.5C 1680.14,729.723 1674.81,739.223 1666.5,747C 1657.73,752.402 1648.4,753.736 1638.5,751C 1632.36,747.787 1630.86,742.954 1634,736.5C 1635.46,734.04 1637.29,731.873 1639.5,730C 1652.66,724.89 1665.99,720.724 1679.5,717.5 Z"/></g>
<g><path style="opacity:0.985" fill="#000000" d="M 1926.5,584.5 C 1932.21,584.471 1937.88,584.971 1943.5,586C 1945.66,587.998 1947.33,590.332 1948.5,593C 1943.84,619.466 1939.34,645.966 1935,672.5C 1932.68,675 1929.85,676.334 1926.5,676.5C 1911.06,672.74 1896.72,675.24 1883.5,684C 1880.79,686.371 1878.46,689.037 1876.5,692C 1882.2,692.17 1887.86,692.67 1893.5,693.5C 1889.07,700.962 1885.9,708.962 1884,717.5C 1878.84,746.124 1874.01,774.791 1869.5,803.5C 1842.49,803.833 1815.49,803.5 1788.5,802.5C 1784.76,799.324 1783.59,795.324 1785,790.5C 1790.35,757.929 1795.85,725.429 1801.5,693C 1795.51,692.501 1789.51,692.334 1783.5,692.5C 1789.05,658.533 1794.38,624.533 1799.5,590.5C 1824.17,590.333 1848.84,590.5 1873.5,591C 1875,592.5 1876.5,594 1878,595.5C 1877.88,600.862 1877.55,606.196 1877,611.5C 1889.74,595.548 1906.24,586.548 1926.5,584.5 Z"/></g>
<g><path style="opacity:0.984" fill="#000000" d="M 964.5,590.5 C 991.502,590.333 1018.5,590.5 1045.5,591C 1049.13,594.05 1050.3,597.883 1049,602.5C 1043.84,632.459 1039.01,662.459 1034.5,692.5C 1040.51,692.334 1046.51,692.501 1052.5,693C 1045.96,729.394 1039.8,765.894 1034,802.5C 1007.24,803.661 980.405,803.828 953.5,803C 951.622,801.457 950.122,799.624 949,797.5C 954.059,762.478 959.559,727.478 965.5,692.5C 959.463,692.829 953.463,692.496 947.5,691.5C 953.274,657.855 958.941,624.189 964.5,590.5 Z"/></g>
</svg>
